<svg width="24" height="24" viewBox="0 0 24 24" fill="none" xmlns="http://www.w3.org/2000/svg">
<path d="M21.59 10.18H12.2V13.89H17.71C17.6 14.81 17 16.2 15.67 17.13C14.83 17.72 13.69 18.13 12.2 18.13C9.56001 18.13 7.31002 16.39 6.51002 13.97C6.30002 13.35 6.18002 12.68 6.18002 11.99C6.18002 11.3 6.30002 10.63 6.50002 10.01C6.56002 9.83001 6.63001 9.64 6.71001 9.47C7.66001 7.34 9.76001 5.85999 12.2 5.85999C14.08 5.85999 15.34 6.67001 16.07 7.35001L18.89 4.59C17.16 2.98 14.9 1.98999 12.2 1.98999C8.29001 1.98999 4.91001 4.23 3.27001 7.5C2.59001 8.86 2.20001 10.38 2.20001 11.99C2.20001 13.6 2.59001 15.12 3.27001 16.48L3.28001 16.47V16.48C4.92001 19.75 8.29001 21.99 12.2 21.99C14.9 21.99 17.17 21.1 18.82 19.57C20.71 17.83 21.8 15.26 21.8 12.21C21.8 11.4 21.73 10.8 21.59 10.18Z" stroke="black" stroke-width="1.5" stroke-miterlimit="10" stroke-linecap="round" stroke-linejoin="round"/>
</svg>
