<svg width="17" height="15" viewBox="0 0 17 15" fill="none" xmlns="http://www.w3.org/2000/svg">
<ellipse cx="8.5" cy="7.5" rx="8.5" ry="7.5" fill="#CCB87B"/>
<path d="M8.68 4.872H9.32V9.64C9.32 9.928 9.248 10.16 9.104 10.336C8.96 10.512 8.73333 10.6 8.424 10.6H8.008V10.04H8.68V4.872ZM9 3.904C8.86133 3.904 8.76 3.872 8.696 3.808C8.63733 3.73867 8.608 3.65067 8.608 3.544V3.44C8.608 3.33333 8.63733 3.248 8.696 3.184C8.76 3.11467 8.86133 3.08 9 3.08C9.13867 3.08 9.23733 3.11467 9.296 3.184C9.36 3.248 9.392 3.33333 9.392 3.44V3.544C9.392 3.65067 9.36 3.73867 9.296 3.808C9.23733 3.872 9.13867 3.904 9 3.904Z" fill="white"/>
</svg>
