<svg width="24" height="25" viewBox="0 0 24 25" fill="none" xmlns="http://www.w3.org/2000/svg">
<path d="M12 12.5C13.3261 12.5 14.5979 11.9732 15.5355 11.0355C16.4732 10.0979 17 8.82608 17 7.5C17 6.17392 16.4732 4.90215 15.5355 3.96447C14.5979 3.02678 13.3261 2.5 12 2.5C10.6739 2.5 9.40215 3.02678 8.46447 3.96447C7.52678 4.90215 7 6.17392 7 7.5C7 8.82608 7.52678 10.0979 8.46447 11.0355C9.40215 11.9732 10.6739 12.5 12 12.5Z" stroke="black" stroke-width="1.5" stroke-linecap="round" stroke-linejoin="round"/>
<path opacity="0.4" d="M20.59 22.5C20.59 18.63 16.74 15.5 12 15.5C7.25997 15.5 3.40997 18.63 3.40997 22.5" stroke="black" stroke-width="1.5" stroke-linecap="round" stroke-linejoin="round"/>
</svg>
