<svg width="25" height="24" viewBox="0 0 25 24" fill="none" xmlns="http://www.w3.org/2000/svg">
<g clip-path="url(#clip0_187_3773)">
<path d="M21.5 3H3.5C1.846 3 0.5 4.346 0.5 6V21H24.5V6C24.5 4.346 23.154 3 21.5 3ZM22.5 19H2.5V6C2.5 5.448 2.949 5 3.5 5H21.5C22.052 5 22.5 5.448 22.5 6V19ZM4.5 8H7.5V9.6H6.1V11.401H7.5V13.001H6.1V16.001H4.5V8ZM17.5 8H20.5V9.6H19.1V11.201H20.5V12.801H19.1V14.402H20.5V16.002H17.5V8ZM13.5 8H16.5V9.6H15.1V11.201H16.5V12.801H15.1V14.402H16.5V16.002H13.5V8ZM13 10.5C13 9.119 11.881 8 10.5 8H8.5V16H10.1V13H10.384L11.256 16H13L11.946 12.538C11.969 12.521 11.97 12.522 11.988 12.509C11.969 12.521 11.957 12.53 11.933 12.544C12.577 12.092 13 11.346 13 10.5ZM10.5 11.4H10.1V9.6H10.5C10.996 9.6 11.4 10.004 11.4 10.5C11.4 10.996 10.996 11.4 10.5 11.4Z" fill="black"/>
</g>
<defs>
<clipPath id="clip0_187_3773">
<rect width="24" height="24" fill="white" transform="translate(0.5)"/>
</clipPath>
</defs>
</svg>
