<svg width="110" height="94" viewBox="0 0 110 94" fill="none" xmlns="http://www.w3.org/2000/svg">
<path d="M43.8883 6.65796L2.02574 73.404C-3.45312 82.1395 2.82615 93.4896 13.1375 93.4896H96.8626C107.174 93.4896 113.453 82.1393 107.974 73.404L66.1117 6.65796C60.9711 -1.53833 49.029 -1.53833 43.8883 6.65796Z" fill="url(#paint0_linear_65_4903)"/>
<path d="M47.6714 22.7818L20.0618 66.8028C16.4485 72.564 20.5896 80.0498 27.3904 80.0498H82.6096C89.4102 80.0498 93.5516 72.564 89.9382 66.8028L62.3286 22.7818C58.938 17.3761 51.0618 17.3761 47.6714 22.7818Z" fill="url(#paint1_linear_65_4903)"/>
<path d="M54.7391 61.0176C55.9863 61.0176 57.7531 60.3421 57.7531 58.7313C57.7531 52.5478 58.4805 43.662 58.4805 37.4784C58.4805 35.4518 56.7658 34.3086 54.7391 34.3086C52.6087 34.3086 50.9459 35.4518 50.9459 37.4784C50.9459 43.662 51.6733 52.5478 51.6733 58.7313C51.6734 60.3421 53.0764 61.0176 54.7391 61.0176Z" fill="url(#paint2_linear_65_4903)"/>
<path d="M51.9544 65.7562C50.3376 67.3729 50.4111 69.8715 51.9544 71.4146C53.4609 72.9211 55.9962 73.0313 57.6129 71.4146C59.1194 69.9081 59.0826 67.2993 57.5762 65.7928C56.0329 64.2497 53.4609 64.2497 51.9544 65.7562Z" fill="url(#paint3_linear_65_4903)"/>
<path d="M13.1375 93.4892H96.8626C104.662 93.4892 110.153 86.9945 109.995 80.0498H0.0051767C-0.153353 86.9945 5.33759 93.4892 13.1375 93.4892Z" fill="url(#paint4_linear_65_4903)"/>
<defs>
<linearGradient id="paint0_linear_65_4903" x1="21.6487" y1="34.5798" x2="92.0976" y2="105.029" gradientUnits="userSpaceOnUse">
<stop stop-color="#FF392D"/>
<stop offset="1" stop-color="#FF392D"/>
</linearGradient>
<linearGradient id="paint1_linear_65_4903" x1="90.5878" y1="98.7813" x2="14.7933" y2="22.9868" gradientUnits="userSpaceOnUse">
<stop stop-color="#FF6D64"/>
<stop offset="1" stop-color="#FF6D64"/>
</linearGradient>
<linearGradient id="paint2_linear_65_4903" x1="50.946" y1="47.6631" x2="58.4805" y2="47.6631" gradientUnits="userSpaceOnUse">
<stop stop-color="white"/>
<stop offset="1" stop-color="#CFB9B9"/>
</linearGradient>
<linearGradient id="paint3_linear_65_4903" x1="52.5237" y1="66.3623" x2="56.6252" y2="70.4639" gradientUnits="userSpaceOnUse">
<stop stop-color="#F4F4F4"/>
<stop offset="1" stop-color="white"/>
</linearGradient>
<linearGradient id="paint4_linear_65_4903" x1="55" y1="83.4507" x2="55" y2="93.1374" gradientUnits="userSpaceOnUse">
<stop stop-color="#E63950" stop-opacity="0"/>
<stop offset="0.0467" stop-color="#E4354B" stop-opacity="0.047"/>
<stop offset="0.4669" stop-color="#D31822" stop-opacity="0.467"/>
<stop offset="0.7991" stop-color="#C90709" stop-opacity="0.799"/>
<stop offset="1" stop-color="#C50000"/>
</linearGradient>
</defs>
</svg>
