<svg width="24" height="24" viewBox="0 0 24 24" fill="none" xmlns="http://www.w3.org/2000/svg">
<path d="M21.0112 12.5088V10.8C21.0112 7.93566 20.0618 5.18864 18.3719 3.16325C16.682 1.13785 14.3899 0 12 0C9.61007 0 7.31804 1.13785 5.6281 3.16325C3.93817 5.18864 2.98878 7.93566 2.98878 10.8V12.5088C1.93863 13.063 1.0792 14.0327 0.55437 15.2557C0.0295374 16.4786 -0.128841 17.8805 0.105747 19.2267C0.340336 20.5729 0.953653 21.7816 1.84302 22.6505C2.73239 23.5195 3.84383 23.9959 4.99127 24H6.99377V12H4.99127V10.8C4.99127 8.57218 5.72969 6.43561 7.04408 4.8603C8.35847 3.285 10.1412 2.4 12 2.4C13.8588 2.4 15.6415 3.285 16.9559 4.8603C18.2703 6.43561 19.0087 8.57218 19.0087 10.8V12H17.0062V24H19.0087C20.1562 23.9959 21.2676 23.5195 22.157 22.6505C23.0463 21.7816 23.6597 20.5729 23.8943 19.2267C24.1288 17.8805 23.9705 16.4786 23.4456 15.2557C22.9208 14.0327 22.0614 13.063 21.0112 12.5088ZM4.99127 21.6C4.19463 21.6 3.43062 21.2207 2.86731 20.5456C2.304 19.8705 1.98753 18.9548 1.98753 18C1.98753 17.0452 2.304 16.1295 2.86731 15.4544C3.43062 14.7793 4.19463 14.4 4.99127 14.4V21.6ZM19.0087 21.6V14.4C19.8054 14.4 20.5694 14.7793 21.1327 15.4544C21.696 16.1295 22.0125 17.0452 22.0125 18C22.0125 18.9548 21.696 19.8705 21.1327 20.5456C20.5694 21.2207 19.8054 21.6 19.0087 21.6Z" fill="black"/>
</svg>
