<svg width="21" height="20" viewBox="0 0 21 20" fill="none" xmlns="http://www.w3.org/2000/svg">
<path d="M15.5333 11.2913C15.1833 11.633 14.9833 12.1247 15.0333 12.6497C15.1083 13.5497 15.9333 14.208 16.8333 14.208H18.4167V15.1997C18.4167 16.9247 17.0083 18.333 15.2833 18.333H5.71667C3.99167 18.333 2.58333 16.9247 2.58333 15.1997V9.59135C2.58333 7.86635 3.99167 6.45801 5.71667 6.45801H15.2833C17.0083 6.45801 18.4167 7.86635 18.4167 9.59135V10.7914H16.7333C16.2667 10.7914 15.8417 10.9747 15.5333 11.2913Z" stroke="#292D32" stroke-width="1.5" stroke-linecap="round" stroke-linejoin="round"/>
<path opacity="0.4" d="M2.58333 10.3421V6.53379C2.58333 5.54212 3.19167 4.65875 4.11667 4.30875L10.7333 1.80875C11.7667 1.41708 12.875 2.18377 12.875 3.29211V6.45876" stroke="#292D32" stroke-width="1.5" stroke-linecap="round" stroke-linejoin="round"/>
<path d="M19.3 11.642V13.3587C19.3 13.817 18.9333 14.192 18.4667 14.2086H16.8333C15.9333 14.2086 15.1083 13.5503 15.0333 12.6503C14.9833 12.1253 15.1833 11.6336 15.5333 11.292C15.8417 10.9753 16.2667 10.792 16.7333 10.792H18.4667C18.9333 10.8087 19.3 11.1836 19.3 11.642Z" stroke="#292D32" stroke-width="1.5" stroke-linecap="round" stroke-linejoin="round"/>
<path opacity="0.4" d="M6.33333 10H12.1667" stroke="#292D32" stroke-width="1.5" stroke-linecap="round" stroke-linejoin="round"/>
</svg>
