<svg xmlns="http://www.w3.org/2000/svg" width="24" height="24" viewBox="0 0 24 24">
  <g id="facebook" transform="translate(-416 -469)">
    <g id="facebook-2" data-name="facebook">
      <path id="BG_1" data-name="BG 1" d="M0,0H24V24H0Z" transform="translate(416 469)" fill="none" opacity="0.58"/>
      <path id="Vector" d="M13,20H7c-5,0-7-2-7-7V7C0,2,2,0,7,0h6c5,0,7,2,7,7v6C20,18,18,20,13,20Z" transform="translate(418 471)" fill="none" stroke="#143959" stroke-linecap="round" stroke-linejoin="round" stroke-width="1.5"/>
      <path id="Vector-2" data-name="Vector" d="M0,0H24V24H0Z" transform="translate(416 469)" fill="none" opacity="0"/>
      <g id="Group_1322" data-name="Group 1322" transform="translate(420.121 473.121)" opacity="0.4">
        <path id="Path_2141" data-name="Path 2141" d="M0,0H15.758V15.758H0Z" fill="none"/>
        <path id="Path_2142" data-name="Path 2142" d="M15.132,3.972a11.781,11.781,0,0,1-1.97.65,2.488,2.488,0,0,0-2.876-.484,2.582,2.582,0,0,0-1.72,2.454v.657A6.167,6.167,0,0,1,3.313,4.622S.567,9.5,5.939,11.844A6.471,6.471,0,0,1,2,13.158a8.815,8.815,0,0,0,6.588,1A7.225,7.225,0,0,0,13.612,9.07a9.087,9.087,0,0,0,.326-2.464c0-.163.991-1.82,1.194-2.635Z" transform="translate(-0.687 -1.339)" fill="none" stroke="#143959" stroke-linecap="round" stroke-linejoin="round" stroke-width="1"/>
      </g>
    </g>
  </g>
</svg>
