<svg width="12" height="12" viewBox="0 0 12 12" fill="none" xmlns="http://www.w3.org/2000/svg">
<path d="M3.38 11H8.62C10 11 10.55 10.155 10.615 9.125L10.875 4.995C10.945 3.915 10.085 3 9 3C8.695 3 8.415 2.825 8.275 2.555L7.915 1.83C7.685 1.375 7.085 1 6.575 1H5.43C4.915 1 4.315 1.375 4.085 1.83L3.725 2.555C3.585 2.825 3.305 3 3 3C1.915 3 1.055 3.915 1.125 4.995L1.385 9.125C1.445 10.155 2 11 3.38 11Z" stroke="white" stroke-width="1.5" stroke-linecap="round" stroke-linejoin="round"/>
<path opacity="0.4" d="M5.25 4H6.75" stroke="white" stroke-width="1.5" stroke-linecap="round" stroke-linejoin="round"/>
<path opacity="0.4" d="M6 9C6.895 9 7.625 8.27 7.625 7.375C7.625 6.48 6.895 5.75 6 5.75C5.105 5.75 4.375 6.48 4.375 7.375C4.375 8.27 5.105 9 6 9Z" stroke="white" stroke-width="1.5" stroke-linecap="round" stroke-linejoin="round"/>
</svg>
