<svg width="52" height="52" viewBox="0 0 52 52" fill="none" xmlns="http://www.w3.org/2000/svg">
<rect width="52" height="52" rx="26" fill="#784A33" fill-opacity="0.08"/>
<rect x="8" y="8" width="36" height="36" rx="18" fill="#8A1538"/>
<path fill-rule="evenodd" clip-rule="evenodd" d="M18.9166 24.5985C18.9166 20.7652 22.1199 17.667 25.9945 17.667C29.8801 17.667 33.0833 20.7652 33.0833 24.5985C33.0833 26.5301 32.3808 28.3233 31.2245 29.8433C29.949 31.5199 28.3768 32.9807 26.6071 34.1273C26.2021 34.3923 25.8365 34.4123 25.392 34.1273C23.6122 32.9807 22.04 31.5199 20.7754 29.8433C19.6183 28.3233 18.9166 26.5301 18.9166 24.5985ZM23.6618 24.8143C23.6618 26.0984 24.7097 27.1084 25.9945 27.1084C27.2802 27.1084 28.3381 26.0984 28.3381 24.8143C28.3381 23.5402 27.2802 22.481 25.9945 22.481C24.7097 22.481 23.6618 23.5402 23.6618 24.8143Z" fill="white"/>
</svg>
