<svg width="250" height="200" viewBox="0 0 250 200" fill="none" xmlns="http://www.w3.org/2000/svg">
<rect width="250" height="200" fill="white"/>
<path fill-rule="evenodd" clip-rule="evenodd" d="M207 65C210.866 65 214 68.134 214 72C214 75.866 210.866 79 207 79H167C170.866 79 174 82.134 174 86C174 89.866 170.866 93 167 93H189C192.866 93 196 96.134 196 100C196 103.866 192.866 107 189 107H178.826C173.952 107 170 110.134 170 114C170 116.577 172 118.911 176 121C179.866 121 183 124.134 183 128C183 131.866 179.866 135 176 135H93C89.134 135 86 131.866 86 128C86 124.134 89.134 121 93 121H54C50.134 121 47 117.866 47 114C47 110.134 50.134 107 54 107H94C97.866 107 101 103.866 101 100C101 96.134 97.866 93 94 93H69C65.134 93 62 89.866 62 86C62 82.134 65.134 79 69 79H109C105.134 79 102 75.866 102 72C102 68.134 105.134 65 109 65H207ZM207 93C210.866 93 214 96.134 214 100C214 103.866 210.866 107 207 107C203.134 107 200 103.866 200 100C200 96.134 203.134 93 207 93Z" fill="#FFEEEE"/>
<path d="M174.176 99.7773H166M180.5 92H163.324H180.5ZM187.5 92H185.279H187.5Z" stroke="#BE0000" stroke-width="2.5" stroke-linecap="round" stroke-linejoin="round"/>
<path d="M84.1758 121.777H76M79.5 113H62.3242H79.5ZM56.5 113H52.2788H56.5Z" stroke="#BE0000" stroke-width="2.5" stroke-linecap="round" stroke-linejoin="round"/>
<path d="M123 145.167C121.967 145.167 120.967 145.033 120.133 144.733C107.4 140.367 87.1665 124.867 87.1665 101.967C87.1665 90.3 96.5998 80.8334 108.2 80.8334C113.833 80.8334 119.1 83.0334 123 86.9667C126.9 83.0334 132.167 80.8334 137.8 80.8334C149.4 80.8334 158.833 90.3334 158.833 101.967C158.833 124.9 138.6 140.367 125.867 144.733C125.033 145.033 124.033 145.167 123 145.167ZM108.2 85.8334C99.3665 85.8334 92.1665 93.0667 92.1665 101.967C92.1665 124.733 114.067 137.4 121.767 140.033C122.367 140.233 123.667 140.233 124.267 140.033C131.933 137.4 153.867 124.767 153.867 101.967C153.867 93.0667 146.667 85.8334 137.833 85.8334C132.767 85.8334 128.067 88.2 125.033 92.3C124.1 93.5667 121.967 93.5667 121.033 92.3C117.933 88.1667 113.267 85.8334 108.2 85.8334Z" fill="#980000"/>
</svg>
