<svg width="20" height="22" viewBox="0 0 20 22" fill="none" xmlns="http://www.w3.org/2000/svg">
<path d="M3.40002 1.10199L16.6 1.10199C17.7 1.10199 18.6 2.00199 18.6 3.10199V5.30199C18.6 6.10199 18.1 7.10199 17.6 7.60199L13.3 11.402C12.7 11.902 12.3 12.902 12.3 13.702V18.002C12.3 18.602 11.9 19.402 11.4 19.702L10 20.602C8.70002 21.402 6.90002 20.502 6.90002 18.902V13.602C6.90002 12.902 6.50002 12.002 6.10002 11.502L2.30002 7.50199C1.80002 7.00199 1.40002 6.10199 1.40002 5.50199L1.40002 3.20199C1.40002 2.00199 2.30002 1.10199 3.40002 1.10199Z" stroke="#707070" stroke-width="1.5" stroke-miterlimit="10" stroke-linecap="round" stroke-linejoin="round"/>
</svg>
