<svg width="73" height="78" viewBox="0 0 73 78" fill="none" xmlns="http://www.w3.org/2000/svg">
<ellipse opacity="0.1" cx="36.5" cy="55.5" rx="36.5" ry="22.5" fill="#1C5948"/>
<path d="M19.0444 18.9713C18.4771 8.6668 26.6799 0 37 0C47.3201 0 55.5229 8.6668 54.9556 18.9713L54.7957 21.876C54.6018 25.3981 53.5126 28.8125 51.6312 31.7963L38.6918 52.317C37.9071 53.5614 36.0929 53.5614 35.3082 52.317L22.3688 31.7963C20.4874 28.8125 19.3982 25.3981 19.2043 21.876L19.0444 18.9713Z" fill="#1C5948"/>
<ellipse cx="37" cy="19.5" rx="14" ry="14.5" fill="white"/>
<path d="M44.0769 20.4612C44.0782 21.3798 43.8787 22.2885 43.4912 23.1299C43.1036 23.9713 42.5364 24.7271 41.8255 25.3492C41.5535 24.9335 41.13 24.6276 40.6358 24.4898C40.1415 24.3521 39.6112 24.3921 39.1461 24.6024C38.681 24.8126 38.3136 25.1783 38.1141 25.6296C37.9146 26.0809 37.897 26.5863 38.0646 27.0492C37.4091 27.1369 36.7439 27.1369 36.0885 27.0492C36.2567 26.5861 36.2394 26.0804 36.04 25.6286C35.8406 25.1769 35.473 24.8109 35.0075 24.6005C34.542 24.3901 34.0113 24.3502 33.5168 24.4883C33.0223 24.6264 32.5987 24.9329 32.327 25.3492C31.106 24.277 30.3262 22.8267 30.1273 21.258C29.9283 19.6893 30.3232 18.1044 31.2412 16.7871C32.1058 17.2637 33.0143 17.6642 33.9554 17.9839C33.5996 18.3837 33.3329 18.848 33.1716 19.3487C33.0102 19.8494 32.9575 20.376 33.0167 20.8967C33.0758 21.4173 33.2457 21.9211 33.5158 22.3775C33.786 22.8338 34.1508 23.2333 34.5883 23.5517C35.0257 23.87 35.5266 24.1006 36.0606 24.2294C36.5947 24.3583 37.1506 24.3827 37.6949 24.3012C38.2391 24.2197 38.7602 24.0339 39.2267 23.7553C39.6931 23.4766 40.0952 23.1108 40.4084 22.68H37.0496V19.8912H44.0521C44.069 20.0791 44.0769 20.2694 44.0769 20.4612Z" fill="#378C74"/>
<path d="M41.6154 26.3777C41.6152 26.7721 41.472 27.1529 41.2128 27.449C40.9535 27.745 40.5957 27.9361 40.2064 27.9865C39.8171 28.0369 39.4229 27.9432 39.0974 27.7228C38.7719 27.5025 38.5373 27.1706 38.4376 26.7891C38.3379 26.4077 38.3798 26.0029 38.5556 25.6503C38.7313 25.2976 39.0288 25.0214 39.3925 24.873C39.7562 24.7247 40.1612 24.7146 40.5318 24.8444C40.9025 24.9742 41.2134 25.2352 41.4065 25.5786C41.5435 25.8224 41.6155 26.0977 41.6154 26.3777Z" fill="#378C74"/>
<path d="M35.7692 26.3769C35.7692 26.6979 35.67 27.0116 35.484 27.2785C35.298 27.5454 35.0337 27.7534 34.7245 27.8763C34.4153 27.9991 34.075 28.0312 33.7468 27.9686C33.4185 27.906 33.1169 27.7514 32.8803 27.5245C32.6436 27.2975 32.4824 27.0083 32.4171 26.6935C32.3518 26.3787 32.3853 26.0524 32.5134 25.7558C32.6415 25.4592 32.8584 25.2058 33.1367 25.0274C33.415 24.8491 33.7422 24.7539 34.0769 24.7539C34.2995 24.7528 34.5201 24.794 34.7259 24.8751C34.9318 24.9563 35.1188 25.0758 35.2762 25.2267C35.4336 25.3776 35.5582 25.557 35.6428 25.7544C35.7275 25.9519 35.7704 26.1634 35.7692 26.3769Z" fill="#378C74"/>
<path d="M45 10C45 10 44.4295 13.5675 42.152 15.8648C41.4814 16.542 40.6623 17.1087 39.6659 17.4411C38.3712 17.8734 36.7776 17.9103 34.8206 17.2808C33.9443 16.9992 32.9952 16.5843 31.9684 16.0106L31.9799 15.9991C32.1987 15.7872 32.4343 15.5916 32.6847 15.414C33.6611 14.7134 34.8347 14.2298 36.0833 13.9049C38.0031 13.4043 40.1022 13.276 41.9391 13.3023C37.8295 12.7018 32.4508 13.469 30.5258 17.0734C28.7287 20.101 30.0832 23.4078 30.218 23.7213C26.2583 15.1806 32.7518 11.4315 38.2674 11.5703C43.7829 11.7091 45 10 45 10Z" fill="#BF946F"/>
</svg>
