<svg width="10" height="10" viewBox="0 0 10 10" fill="none" xmlns="http://www.w3.org/2000/svg">
<path d="M5.57667 2.17L6.16333 3.34334C6.24333 3.50667 6.45667 3.66334 6.63667 3.69334L7.7 3.87C8.38 3.98334 8.54 4.47667 8.05 4.96334L7.22333 5.79C7.08333 5.93 7.00667 6.20001 7.05 6.39334L7.28667 7.41667C7.47333 8.22667 7.04333 8.54001 6.32667 8.11667L5.33 7.52667C5.15 7.42001 4.85333 7.42001 4.67 7.52667L3.67333 8.11667C2.96 8.54001 2.52667 8.22334 2.71333 7.41667L2.95 6.39334C2.99333 6.20001 2.91667 5.93 2.77667 5.79L1.95 4.96334C1.46333 4.47667 1.62 3.98334 2.3 3.87L3.36333 3.69334C3.54 3.66334 3.75333 3.50667 3.83333 3.34334L4.42 2.17C4.74 1.53334 5.26 1.53334 5.57667 2.17Z" stroke="#BCBCBC" stroke-width="1.5" stroke-linecap="round" stroke-linejoin="round"/>
</svg>
