<svg width="8" height="8" viewBox="0 0 8 8" fill="none" xmlns="http://www.w3.org/2000/svg">
<path opacity="0.4" d="M1.91333 5.33335C1.94999 5.17002 1.88333 4.93669 1.76666 4.82002L0.95666 4.01002C0.703327 3.75669 0.603327 3.48669 0.67666 3.25335C0.753327 3.02002 0.989994 2.86002 1.34333 2.80002L2.38333 2.62669C2.53333 2.60002 2.71666 2.46669 2.78666 2.33002L3.35999 1.18002C3.52666 0.85002 3.75333 0.666687 3.99999 0.666687C4.24666 0.666687 4.47333 0.85002 4.63999 1.18002L5.21333 2.33002C5.25666 2.41669 5.34666 2.50002 5.44333 2.55669L1.85333 6.14669C1.80666 6.19335 1.72666 6.15002 1.73999 6.08335L1.91333 5.33335Z" fill="#FFB400"/>
<path d="M6.23333 4.82001C6.11333 4.94001 6.04667 5.17001 6.08667 5.33334L6.31667 6.33667C6.41333 6.75334 6.35333 7.06667 6.14667 7.21667C6.06333 7.27667 5.96333 7.30667 5.84667 7.30667C5.67667 7.30667 5.47667 7.24334 5.25667 7.11334L4.28 6.53334C4.12667 6.44334 3.87333 6.44334 3.72 6.53334L2.74333 7.11334C2.37333 7.33001 2.05667 7.36667 1.85333 7.21667C1.77667 7.16001 1.72 7.08334 1.68333 6.98334L5.73667 2.93001C5.89 2.77667 6.10667 2.70667 6.31667 2.74334L6.65333 2.80001C7.00667 2.86001 7.24333 3.02001 7.32 3.25334C7.39333 3.48667 7.29333 3.75667 7.04 4.01001L6.23333 4.82001Z" fill="#FFB400"/>
</svg>
