<svg width="80" height="71" viewBox="0 0 80 71" fill="none" xmlns="http://www.w3.org/2000/svg">
<path d="M73.3332 28.9667C73.3332 32.9334 72.6998 36.6 71.5998 40H8.39984C7.29984 36.6 6.6665 32.9334 6.6665 28.9667C6.6665 18.6667 14.9665 10.3334 25.1998 10.3334C31.2332 10.3334 36.6332 13.2667 39.9998 17.7667C43.3665 13.2667 48.7665 10.3334 54.7998 10.3334C65.0332 10.3334 73.3332 18.6667 73.3332 28.9667Z" fill="#980000"/>
<path opacity="0.4" d="M71.5999 40C66.3332 56.6667 50.0999 66.6333 42.0666 69.3667C40.9332 69.7667 39.0666 69.7667 37.9332 69.3667C29.8999 66.6333 13.6666 56.6667 8.3999 40H71.5999Z" fill="#980000"/>
</svg>
